<?xml version="1.0" encoding="UTF-8"?> <!-- Generator: Adobe Illustrator 19.0.0, SVG Export Plug-In . SVG Version: 6.00 Build 0) --> <svg xmlns="http://www.w3.org/2000/svg" xmlns:xlink="http://www.w3.org/1999/xlink" version="1.1" id="Layer_1" x="0px" y="0px" viewBox="0 0 380.5 150.7" style="enable-background:new 0 0 380.5 150.7;" xml:space="preserve"> <style type="text/css"> .st0{fill:#006439;} .st1{fill-rule:evenodd;clip-rule:evenodd;fill:#FFFFFF;} .st2{fill-rule:evenodd;clip-rule:evenodd;fill:#F58220;} .st3{fill:#F58220;} </style> <g id="XMLID_58_"> <path id="XMLID_122_" class="st0" d="M69,62.1l-0.5-0.7c44.9-33.3,91.4-53.2,138.3-59.1c45.8-5.7,89.4,2.2,129.7,23.5l-0.4,0.8 C254.7-16.5,157.4-3.6,69,62.1z"></path> </g> <g id="XMLID_57_"> <path id="XMLID_121_" class="st0" d="M71.1,62.2l-0.7-1C115,29,160.8,10.2,206.5,5.3c44.7-4.8,87.2,3.9,126.4,25.8l-0.6,1 C252.4-12.5,159.6-1.8,71.1,62.2z"></path> </g> <g id="XMLID_56_"> <path id="XMLID_120_" class="st0" d="M73.1,62.4l-0.9-1.2C160.1-0.7,251.4-9.5,329.3,36.3l-0.8,1.3C251.2-7.9,160.5,0.9,73.1,62.4z "></path> </g> <g id="XMLID_55_"> <path id="XMLID_119_" class="st0" d="M75.2,62.5l-1-1.5c44-30.1,88.4-46.8,131.8-49.8c42.3-2.9,82.6,7.3,119.8,30.4l-1,1.6 C250-3.2,161.3,3.6,75.2,62.5z"></path> </g> <g id="XMLID_54_"> <path id="XMLID_118_" class="st0" d="M77.2,62.6L76,60.8c43.7-29,87.3-44.7,129.7-46.7c41.1-1.9,80.3,9.1,116.5,32.7l-1.2,1.8 C247.7,0.7,163.4,5.5,77.2,62.6z"></path> </g> <g id="XMLID_53_"> <path id="XMLID_117_" class="st0" d="M79.3,62.8l-1.3-2.1c85.8-55.1,169-58.1,240.7-8.6l-1.4,2.1C246.4,5.3,164.1,8.3,79.3,62.8z"></path> </g> <g id="XMLID_52_"> <path id="XMLID_116_" class="st0" d="M81.3,62.9l-1.5-2.4c43.1-26.8,85.3-40.4,125.4-40.5c0.1,0,0.2,0,0.4,0 c38.7,0,75.5,12.6,109.5,37.3l-1.7,2.3C244.1,9.2,166,10.3,81.3,62.9z"></path> </g> <g id="XMLID_51_"> <path id="XMLID_115_" class="st0" d="M309.5,65.2c-66.8-51.4-142.9-52.1-226.2-2.1l-1.6-2.7c84.6-50.7,161.9-50,229.8,2.3 L309.5,65.2z"></path> </g> <g id="XMLID_50_"> <path id="XMLID_114_" class="st0" d="M305.7,70.7c-64.3-52.3-138.4-54.8-220.4-7.4l-1.7-3c42.5-24.6,83.2-36.1,121.1-34.3 c36.4,1.8,71.1,15.9,103.2,42L305.7,70.7z"></path> </g> <g id="XMLID_49_"> <path id="XMLID_113_" class="st0" d="M301.9,76.2C239.1,22.1,169,18,87.4,63.4l-1.9-3.3c42.2-23.5,82.2-33.9,119-31.2 c35.2,2.7,68.8,17.6,99.9,44.3L301.9,76.2z"></path> </g> <g id="XMLID_48_"> <path id="XMLID_112_" class="st0" d="M298,81.6c-60.3-55-128.6-60.9-208.7-18.1l-1.9-3.6c42.4-22.7,80.6-31.8,116.9-28 c34.5,3.6,66,18.9,96.5,46.7L298,81.6z"></path> </g> <g id="XMLID_47_"> <path id="XMLID_111_" class="st0" d="M294.2,87.1C235.5,30.4,171,23,91.4,63.7l-2-4c42.1-21.5,79.6-29.7,114.8-24.9 c33.2,4.5,63.7,20.6,93.2,49L294.2,87.1z"></path> </g> <path id="XMLID_46_" class="st1" d="M334.6,26.2c24.7,0,44.7,20,44.7,44.7c0,24.7-20,44.7-44.7,44.7c-24.7,0-44.7-20-44.7-44.7 C289.8,46.2,309.9,26.2,334.6,26.2"></path> <path id="XMLID_42_" class="st2" d="M302.5,95.3c-5.1-6.8-8.2-15.2-8.2-24.3c0-12.9,6.1-24.4,15.6-31.8c5.1,6.8,8.2,15.2,8.2,24.3 C318.1,76.4,312,87.9,302.5,95.3 M365.8,45.6c5.6,6.9,9,15.7,9,25.4c0,11.1-4.5,21.2-11.8,28.5c-5.6-6.9-9-15.7-9-25.4 C354,62.9,358.5,52.9,365.8,45.6z M334.6,30.7c10.7,0,20.4,4.2,27.7,11c-8.3,8.2-13.5,19.7-13.5,32.3c0,10.9,3.9,21,10.3,28.8 c-6.8,5.2-15.3,8.3-24.5,8.3c-11.2,0-21.3-4.6-28.6-11.9c10.6-8.3,17.4-21.3,17.4-35.8c0-10.2-3.4-19.7-9.1-27.3 C320.2,32.7,327.2,30.7,334.6,30.7z"></path> <g id="XMLID_28_"> <path id="XMLID_34_" class="st0" d="M192.9,65.3c0.2,0,0.4,0,0.6,0.1c0.2,0,0.4,0.1,0.5,0.2c0.1,0.1,0.2,0.2,0.3,0.3 c0.1,0.1,0.2,0.3,0.2,0.4c0,0.1,0.1,0.3,0.1,0.4c0,0.9,0,1.8,0,2.6c0,0.8,0,1.6,0,2.3c0,0.7,0,1.3-0.1,1.8c0,0.5,0,0.9-0.1,1.1 c0,0.3-0.1,0.5-0.1,0.6c-0.1,0.1-0.1,0.3-0.2,0.3c-0.1,0.1-0.2,0.1-0.3,0.2c-0.1,0-0.2,0.1-0.4,0.1c-0.1,0-0.3,0-0.5,0.1 c0,0,0,0,0,0.1c0,0,0,0.1,0,0.1c0,0,0,0.1,0,0.1c0.2,0,0.4,0,0.7,0c0.3,0,0.8,0,1.3,0c0.3,0,0.6,0,0.8,0c0.3,0,0.5,0,0.7,0 c0.2,0,0.4,0,0.5,0c0,0,0,0,0-0.1c0,0,0-0.1,0-0.1c0,0,0-0.1,0-0.1c-0.2,0-0.4,0-0.5-0.1c-0.2,0-0.3,0-0.4-0.1 c-0.2,0-0.3-0.1-0.4-0.2c-0.1-0.1-0.2-0.2-0.3-0.3c-0.1-0.2-0.1-0.4-0.1-0.6c0-0.1,0-0.4,0-0.7c0-0.3,0-0.7,0-1.1 c0-0.4,0-0.9,0-1.4c0-0.5,0-1,0-1.5c0-0.5,0-1,0-1.4c0-0.4,0-0.8,0-1.1c0,0,0,0,0,0c0,0,0,0,0,0c0.1,0.2,0.3,0.4,0.6,0.7 c0.3,0.3,0.6,0.8,1,1.3c0.4,0.5,0.8,1,1.2,1.6c0.4,0.6,0.8,1.1,1.3,1.7c0.4,0.6,0.8,1.1,1.2,1.6c0.4,0.5,0.7,0.9,1,1.3 c0.3,0.4,0.5,0.6,0.6,0.8c0.1,0,0.3,0,0.5,0c0.2,0,0.4,0,0.5,0c0.2,0,0.3,0,0.4,0c0-0.2,0-0.4,0-0.7c0-0.3,0-0.6,0-0.9 c0-0.3,0-0.6,0-0.9c0-0.5,0-0.9,0-1.5c0-0.5,0-1,0-1.6c0-0.5,0-1.1,0-1.6c0-0.5,0-1,0-1.4c0-0.4,0-0.8,0.1-1.2c0-0.2,0-0.3,0.1-0.5 c0-0.1,0.1-0.3,0.2-0.3c0.1-0.1,0.2-0.2,0.4-0.2c0.1,0,0.2-0.1,0.3-0.1c0.1,0,0.2,0,0.4-0.1c0,0,0,0,0-0.1c0,0,0-0.1,0-0.1 c0,0,0-0.1,0-0.1c-0.1,0-0.2,0-0.4,0c-0.2,0-0.4,0-0.6,0c-0.2,0-0.5,0-0.7,0c-0.4,0-0.8,0-1.2,0c-0.4,0-0.7,0-1,0c0,0,0,0,0,0.1 c0,0,0,0.1,0,0.1c0,0,0,0.1,0,0.1c0.2,0,0.4,0,0.6,0.1c0.2,0,0.3,0.1,0.4,0.1c0.2,0.1,0.3,0.1,0.4,0.2c0.1,0.1,0.2,0.2,0.2,0.3 c0,0.1,0.1,0.3,0.1,0.5c0,0.2,0,0.5,0.1,0.9c0,0.4,0,0.8,0,1.4c0,0.5,0,1,0,1.6c0,0.6,0,1.1,0,1.7c0,0.5,0,1,0,1.5c0,0,0,0,0,0 c0,0,0,0,0,0c-0.2-0.2-0.4-0.5-0.7-0.9c-0.3-0.4-0.6-0.8-1-1.2c-0.4-0.5-0.7-0.9-1.1-1.4c-0.4-0.5-0.8-1-1.2-1.5 c-0.4-0.5-0.7-0.9-1.1-1.4c-0.3-0.4-0.6-0.8-0.9-1.1c-0.2-0.3-0.3-0.4-0.4-0.6c-0.1-0.1-0.2-0.3-0.2-0.4c-0.1,0-0.2,0-0.3,0 c-0.2,0-0.4,0-0.6,0c-0.3,0-0.5,0-0.8,0c-0.3,0-0.6,0-0.8,0c-0.3,0-0.5,0-0.7,0c0,0,0,0,0,0.1C192.9,65.1,192.9,65.2,192.9,65.3 C192.9,65.2,192.9,65.3,192.9,65.3 M178,67.1c0.1,0.2,0.2,0.5,0.3,0.8c0.1,0.3,0.2,0.7,0.3,1c0.1,0.4,0.2,0.7,0.3,1.1 c0.1,0.3,0.2,0.6,0.3,0.9c0,0,0,0,0,0.1c0,0,0,0,0,0c-0.1,0-0.2,0-0.3,0c-0.1,0-0.3,0-0.5,0c-0.2,0-0.3,0-0.5,0c-0.3,0-0.6,0-0.8,0 c-0.2,0-0.3,0-0.4,0c0,0,0,0,0,0c0,0,0,0,0-0.1c0.1-0.2,0.2-0.5,0.3-0.8c0.1-0.3,0.2-0.7,0.3-1c0.1-0.4,0.2-0.7,0.4-1.1 C177.7,67.7,177.8,67.4,178,67.1C177.9,67.1,177.9,67.1,178,67.1C177.9,67.1,177.9,67.1,178,67.1z M172.8,75.8 C172.7,75.8,172.7,75.8,172.8,75.8c0,0.1,0,0.2,0,0.2c0,0,0,0.1,0,0.1c0.3,0,0.5,0,0.8,0c0.3,0,0.6,0,0.9,0c0.4,0,0.8,0,1.1,0 c0.4,0,0.7,0,0.9,0c0,0,0,0,0-0.1c0,0,0-0.1,0-0.1c0,0,0-0.1,0-0.1c-0.2,0-0.3,0-0.5-0.1c-0.1,0-0.2-0.1-0.4-0.1 c-0.2,0-0.3-0.1-0.4-0.2c-0.1-0.1-0.1-0.1-0.1-0.2c0-0.1,0-0.2,0-0.2c0-0.1,0-0.3,0.1-0.5c0.1-0.2,0.2-0.5,0.3-0.8 c0.1-0.3,0.2-0.6,0.3-0.9c0.1-0.3,0.2-0.6,0.3-0.8c0,0,0-0.1,0.1-0.1c0,0,0.1,0,0.1,0c0.1,0,0.3,0,0.5,0c0.3,0,0.6,0,1,0 c0.3,0,0.6,0,0.8,0c0.2,0,0.4,0,0.5,0c0,0,0.1,0,0.1,0c0,0,0,0.1,0,0.1c0.1,0.2,0.2,0.5,0.3,0.8c0.1,0.3,0.2,0.6,0.3,0.9 c0.1,0.3,0.2,0.6,0.3,0.9c0.1,0.3,0.2,0.5,0.2,0.7c0,0.1,0,0.1,0,0.2c0,0.1-0.1,0.2-0.2,0.2c-0.1,0-0.2,0.1-0.4,0.1 c-0.2,0-0.3,0.1-0.5,0.1c0,0,0,0.1,0,0.2c0,0.1,0,0.1,0,0.2c0.2,0,0.4,0,0.6,0c0.2,0,0.5,0,0.7,0c0.3,0,0.6,0,1.1,0 c0.3,0,0.6,0,0.9,0c0.3,0,0.6,0,0.8,0c0.2,0,0.4,0,0.6,0c0,0,0,0,0-0.1c0,0,0-0.1,0-0.1c0,0,0-0.1,0-0.1c-0.3,0-0.5-0.1-0.7-0.1 c-0.2,0-0.3-0.1-0.5-0.2c-0.1-0.1-0.2-0.3-0.3-0.4c-0.1-0.2-0.2-0.5-0.3-0.8c-0.1-0.3-0.2-0.6-0.4-1c-0.1-0.4-0.3-0.9-0.5-1.5 c-0.2-0.5-0.4-1.1-0.6-1.7c-0.2-0.6-0.4-1.1-0.6-1.7c-0.2-0.5-0.3-1-0.5-1.5c-0.1-0.4-0.3-0.8-0.3-1c0-0.2-0.1-0.3-0.1-0.5 c0-0.2-0.1-0.3-0.1-0.4c-0.1,0-0.2,0-0.3,0c-0.1,0-0.2,0-0.4,0c-0.1,0-0.3,0-0.4,0c-0.1,0-0.2,0-0.3,0c0,0.1,0,0.2-0.1,0.4 c0,0.2-0.1,0.3-0.1,0.4c-0.1,0.2-0.2,0.5-0.3,0.9c-0.1,0.4-0.3,0.8-0.5,1.3c-0.2,0.5-0.4,1-0.6,1.6c-0.2,0.6-0.4,1.1-0.6,1.7 c-0.2,0.6-0.4,1.1-0.6,1.6c-0.2,0.5-0.4,1-0.5,1.3c-0.1,0.3-0.2,0.5-0.3,0.7c-0.1,0.2-0.2,0.3-0.4,0.4c-0.1,0.1-0.3,0.2-0.5,0.2 C173.3,75.7,173.1,75.7,172.8,75.8z M155.3,65.3c0.1,0,0.3,0,0.4,0.1c0.1,0,0.3,0,0.4,0.1c0.2,0,0.3,0.1,0.4,0.2 c0.1,0.1,0.1,0.2,0.2,0.3c0,0.1,0,0.3,0,0.4c0,0.2,0,0.5,0,0.8c0,0.3,0,0.7,0,1.2c0,0.5,0,1,0,1.7c0,0.8,0,1.5,0,2.1 c0,0.6,0,1,0,1.4c0,0.4,0,0.7,0,0.9c0,0.2,0,0.4,0,0.5c0,0.3-0.1,0.4-0.1,0.6c-0.1,0.1-0.2,0.2-0.4,0.2c-0.1,0-0.2,0-0.2,0.1 c-0.1,0-0.2,0-0.3,0c-0.1,0-0.2,0-0.4,0.1c0,0,0,0,0,0.1c0,0,0,0.1,0,0.1c0,0,0,0.1,0,0.1c0.4,0,0.8,0,1.2,0c0.4,0,0.8,0,1.3,0 c0.3,0,0.6,0,1,0c0.4,0,0.8,0,1.2,0c0.4,0,0.8,0,1.2,0c0.4,0,0.7,0,1.1,0c0.3,0,0.5,0,0.6,0c0.2,0,0.3,0,0.3-0.1 c0.1,0,0.1-0.1,0.1-0.1c0.1-0.1,0.1-0.3,0.2-0.4c0.1-0.2,0.2-0.4,0.2-0.6c0.1-0.2,0.1-0.5,0.2-0.7c0.1-0.2,0.1-0.5,0.2-0.7 c0-0.2,0.1-0.4,0.1-0.5c0,0,0,0-0.1-0.1c0,0-0.1,0-0.1,0c0,0-0.1,0-0.1,0c-0.1,0.3-0.2,0.5-0.4,0.8c-0.2,0.3-0.3,0.5-0.5,0.8 c-0.2,0.2-0.3,0.4-0.4,0.5c-0.2,0.2-0.3,0.3-0.5,0.4c-0.2,0.1-0.3,0.1-0.5,0.1c-0.2,0-0.4,0-0.6,0s-0.5,0-0.7,0c-0.3,0-0.5,0-0.7,0 c-0.2,0-0.4,0-0.5-0.1c-0.1,0-0.2-0.1-0.2-0.2c-0.1-0.1-0.1-0.2-0.1-0.4c0-0.1,0-0.3,0-0.6c0-0.2,0-0.5,0-0.9c0-0.3,0-0.7,0-1.1 c0-0.4,0-0.8,0-1.1c0-0.4,0-0.7,0-1.1c0-0.4,0-0.8,0-1.2c0-0.4,0-0.8,0-1.1c0-0.4,0-0.7,0-0.9c0-0.3,0-0.4,0-0.5c0-0.2,0-0.3,0-0.4 c0-0.1,0.1-0.2,0.1-0.3c0.1-0.1,0.2-0.1,0.3-0.2c0.1,0,0.1,0,0.2-0.1c0.1,0,0.1,0,0.2,0c0.1,0,0.2,0,0.3,0c0,0,0,0,0-0.1 c0,0,0-0.1,0-0.1c0,0,0-0.1,0-0.1c-0.2,0-0.5,0-0.9,0c-0.4,0-0.8,0-1.4,0c-0.3,0-0.6,0-0.9,0c-0.2,0-0.4,0-0.6,0 c-0.2,0-0.3,0-0.4,0c-0.1,0-0.3,0-0.4,0c0,0,0,0,0,0.1C155.3,65.1,155.3,65.1,155.3,65.3C155.3,65.2,155.3,65.3,155.3,65.3z M140.1,67.1c0.1,0.2,0.2,0.5,0.3,0.8c0.1,0.3,0.2,0.7,0.3,1c0.1,0.4,0.2,0.7,0.3,1.1c0.1,0.3,0.2,0.6,0.3,0.9c0,0,0,0,0,0.1 c0,0,0,0,0,0c-0.1,0-0.2,0-0.3,0c-0.1,0-0.3,0-0.5,0c-0.2,0-0.3,0-0.5,0c-0.3,0-0.6,0-0.8,0c-0.2,0-0.3,0-0.4,0c0,0,0,0,0,0 c0,0,0,0,0-0.1c0.1-0.2,0.2-0.5,0.3-0.8c0.1-0.3,0.2-0.7,0.3-1c0.1-0.4,0.2-0.7,0.4-1.1C139.8,67.7,139.9,67.4,140.1,67.1 C140,67.1,140,67.1,140.1,67.1C140.1,67.1,140.1,67.1,140.1,67.1z M134.9,75.8C134.9,75.8,134.8,75.8,134.9,75.8c0,0.1,0,0.2,0,0.2 c0,0,0,0.1,0,0.1c0.3,0,0.5,0,0.8,0c0.3,0,0.6,0,0.9,0c0.4,0,0.8,0,1.1,0c0.4,0,0.7,0,0.9,0c0,0,0,0,0-0.1c0,0,0-0.1,0-0.1 c0,0,0-0.1,0-0.1c-0.2,0-0.3,0-0.5-0.1c-0.1,0-0.2-0.1-0.4-0.1c-0.2,0-0.3-0.1-0.4-0.2c-0.1-0.1-0.1-0.1-0.1-0.2c0-0.1,0-0.2,0-0.2 c0-0.1,0-0.3,0.1-0.5c0.1-0.2,0.2-0.5,0.3-0.8c0.1-0.3,0.2-0.6,0.3-0.9c0.1-0.3,0.2-0.6,0.3-0.8c0,0,0-0.1,0.1-0.1c0,0,0.1,0,0.1,0 c0.1,0,0.3,0,0.5,0c0.3,0,0.6,0,1,0c0.3,0,0.6,0,0.8,0c0.2,0,0.4,0,0.5,0c0,0,0.1,0,0.1,0c0,0,0,0.1,0,0.1c0.1,0.2,0.2,0.5,0.3,0.8 c0.1,0.3,0.2,0.6,0.3,0.9c0.1,0.3,0.2,0.6,0.3,0.9c0.1,0.3,0.2,0.5,0.2,0.7c0,0.1,0,0.1,0,0.2c0,0.1-0.1,0.2-0.2,0.2 c-0.1,0-0.2,0.1-0.4,0.1c-0.2,0-0.3,0.1-0.5,0.1c0,0,0,0.1,0,0.2c0,0.1,0,0.1,0,0.2c0.2,0,0.4,0,0.6,0c0.2,0,0.5,0,0.7,0 c0.3,0,0.6,0,1.1,0c0.3,0,0.6,0,0.9,0c0.3,0,0.6,0,0.8,0c0.2,0,0.4,0,0.6,0c0,0,0,0,0-0.1c0,0,0-0.1,0-0.1c0,0,0-0.1,0-0.1 c-0.3,0-0.5-0.1-0.7-0.1c-0.2,0-0.3-0.1-0.5-0.2c-0.1-0.1-0.2-0.3-0.3-0.4c-0.1-0.2-0.2-0.5-0.3-0.8c-0.1-0.3-0.2-0.6-0.4-1 c-0.1-0.4-0.3-0.9-0.5-1.5c-0.2-0.5-0.4-1.1-0.6-1.7c-0.2-0.6-0.4-1.1-0.6-1.7c-0.2-0.5-0.3-1-0.5-1.5c-0.1-0.4-0.3-0.8-0.3-1 c0-0.2-0.1-0.3-0.1-0.5c0-0.2-0.1-0.3-0.1-0.4c-0.1,0-0.2,0-0.3,0c-0.1,0-0.2,0-0.4,0c-0.1,0-0.3,0-0.4,0c-0.1,0-0.2,0-0.3,0 c0,0.1,0,0.2-0.1,0.4c0,0.2-0.1,0.3-0.1,0.4c-0.1,0.2-0.2,0.5-0.3,0.9c-0.1,0.4-0.3,0.8-0.5,1.3c-0.2,0.5-0.4,1-0.6,1.6 c-0.2,0.6-0.4,1.1-0.6,1.7c-0.2,0.6-0.4,1.1-0.6,1.6c-0.2,0.5-0.4,1-0.5,1.3c-0.1,0.3-0.2,0.5-0.3,0.7c-0.1,0.2-0.2,0.3-0.4,0.4 c-0.1,0.1-0.3,0.2-0.5,0.2C135.4,75.7,135.2,75.7,134.9,75.8z M120,70.4c0.1,0,0.3,0.1,0.5,0.1c0.2,0,0.3,0,0.5,0 c0.5,0,0.9-0.1,1.4-0.2c0.4-0.1,0.9-0.3,1.3-0.6c0.4-0.2,0.7-0.5,1-0.8c0.3-0.3,0.5-0.8,0.7-1.2c0.2-0.5,0.3-1,0.3-1.6 c0-0.5-0.1-0.9-0.2-1.3c-0.1-0.4-0.3-0.7-0.5-1c-0.2-0.3-0.5-0.5-0.7-0.7c-0.2-0.2-0.5-0.3-0.7-0.4c-0.3-0.1-0.5-0.2-0.8-0.2 c-0.3,0-0.5-0.1-0.8-0.1c-0.2,0-0.4,0-0.6,0c-0.4,0-0.8,0-1.2,0c-0.4,0-0.8,0-1.2,0c-0.4,0-0.9,0-1.3,0c-0.4,0-0.7,0-1.1,0 c-0.4,0-0.7,0-1,0c-0.3,0-0.5,0-0.7,0c0,0,0,0.1,0,0.1c0,0,0,0.1,0,0.2c0,0.1,0,0.1,0,0.1c0.2,0,0.4,0,0.5,0.1 c0.2,0,0.3,0.1,0.5,0.1c0.2,0,0.3,0.1,0.4,0.2c0.1,0.1,0.2,0.3,0.2,0.4c0,0.2,0.1,0.4,0.1,0.6c0,0.4,0,1,0,1.8c0,0.8,0,1.8,0,2.9 c0,1.5,0,2.7,0,3.6c0,0.9,0,1.6-0.1,2c0,0.3,0,0.5-0.1,0.7c0,0.2-0.1,0.3-0.2,0.4c-0.1,0.1-0.2,0.1-0.4,0.2l-1,0.2c0,0,0,0.1,0,0.1 c0,0.1,0,0.1,0,0.2c0,0.1,0,0.1,0,0.1c0.5,0,1,0,1.5,0c0.5,0,1.1,0,1.7,0c0.3,0,0.6,0,0.9,0c0.3,0,0.6,0,0.9,0c0.3,0,0.5,0,0.8,0 c0.2,0,0.4,0,0.5,0c0,0,0-0.1,0-0.1c0-0.1,0-0.1,0-0.2c0-0.1,0-0.1,0-0.1c-0.3,0-0.5,0-0.7-0.1c-0.2,0-0.4-0.1-0.5-0.1 c-0.2,0-0.3-0.1-0.4-0.2c-0.1-0.1-0.2-0.2-0.2-0.4c0-0.2-0.1-0.4-0.1-0.7c0-0.3,0-0.6,0-1c0-0.4,0-0.8,0-1.2c0-0.4,0-0.9,0-1.3 c0-0.4,0-0.8,0-1.2c0-0.4,0-0.7,0-0.9c0-1.5,0-2.7,0-3.6c0-0.9,0-1.5,0.1-1.8c0-0.1,0-0.1,0-0.2c0-0.1,0.1-0.1,0.1-0.1 c0.1,0,0.1-0.1,0.2-0.1c0.1,0,0.2,0,0.3,0c0.1,0,0.1,0,0.2,0c0.5,0,1,0.1,1.4,0.3c0.4,0.2,0.7,0.5,1,0.8c0.3,0.3,0.5,0.7,0.6,1.2 c0.1,0.5,0.2,1,0.2,1.5c0,0.8-0.1,1.4-0.2,1.9c-0.2,0.5-0.5,0.9-0.9,1.1c-0.2,0.1-0.4,0.2-0.6,0.3c-0.2,0.1-0.5,0.1-0.8,0.1 c-0.2,0-0.3,0-0.4,0c-0.1,0-0.2,0-0.3-0.1c0,0,0,0-0.1,0.1c0,0,0,0.1,0,0.1c0,0,0,0,0.1,0.1C119.9,70.2,119.9,70.2,120,70.4 C120,70.3,120,70.4,120,70.4z"></path> <path id="XMLID_29_" class="st0" d="M239,67.1c0.1,0.2,0.2,0.5,0.3,0.8c0.1,0.3,0.2,0.7,0.3,1c0.1,0.4,0.2,0.7,0.3,1.1 c0.1,0.3,0.2,0.6,0.3,0.9c0,0,0,0,0,0.1c0,0,0,0,0,0c-0.1,0-0.2,0-0.3,0c-0.1,0-0.3,0-0.5,0c-0.2,0-0.3,0-0.5,0c-0.3,0-0.6,0-0.8,0 c-0.2,0-0.3,0-0.4,0c0,0,0,0,0,0c0,0,0,0,0-0.1c0.1-0.2,0.2-0.5,0.3-0.8c0.1-0.3,0.2-0.7,0.3-1c0.1-0.4,0.2-0.7,0.4-1.1 C238.8,67.7,238.9,67.4,239,67.1C239,67.1,239,67.1,239,67.1C239,67.1,239,67.1,239,67.1 M233.8,75.8 C233.8,75.8,233.8,75.8,233.8,75.8c0,0.1,0,0.2,0,0.2c0,0,0,0.1,0,0.1c0.3,0,0.5,0,0.8,0c0.3,0,0.6,0,0.9,0c0.4,0,0.8,0,1.1,0 c0.4,0,0.7,0,0.9,0c0,0,0,0,0-0.1c0,0,0-0.1,0-0.1c0,0,0-0.1,0-0.1c-0.2,0-0.3,0-0.5-0.1c-0.1,0-0.2-0.1-0.4-0.1 c-0.2,0-0.3-0.1-0.4-0.2c-0.1-0.1-0.1-0.1-0.1-0.2c0-0.1,0-0.2,0-0.2c0-0.1,0-0.3,0.1-0.5c0.1-0.2,0.2-0.5,0.3-0.8 c0.1-0.3,0.2-0.6,0.3-0.9c0.1-0.3,0.2-0.6,0.3-0.8c0,0,0-0.1,0.1-0.1c0,0,0.1,0,0.1,0c0.1,0,0.3,0,0.5,0c0.3,0,0.6,0,1,0 c0.3,0,0.6,0,0.8,0c0.2,0,0.4,0,0.5,0c0,0,0.1,0,0.1,0c0,0,0,0.1,0,0.1c0.1,0.2,0.2,0.5,0.3,0.8c0.1,0.3,0.2,0.6,0.3,0.9 c0.1,0.3,0.2,0.6,0.3,0.9c0.1,0.3,0.2,0.5,0.2,0.7c0,0.1,0,0.1,0,0.2c0,0.1-0.1,0.2-0.2,0.2c-0.1,0-0.2,0.1-0.4,0.1 c-0.2,0-0.3,0.1-0.5,0.1c0,0,0,0.1,0,0.2c0,0.1,0,0.1,0,0.2c0.2,0,0.4,0,0.6,0c0.2,0,0.5,0,0.7,0c0.3,0,0.6,0,1.1,0 c0.3,0,0.6,0,0.9,0c0.3,0,0.6,0,0.8,0c0.2,0,0.4,0,0.6,0c0,0,0,0,0-0.1c0,0,0-0.1,0-0.1c0,0,0-0.1,0-0.1c-0.3,0-0.5-0.1-0.7-0.1 c-0.2,0-0.3-0.1-0.5-0.2c-0.1-0.1-0.2-0.3-0.3-0.4c-0.1-0.2-0.2-0.5-0.3-0.8c-0.1-0.3-0.2-0.6-0.4-1c-0.1-0.4-0.3-0.9-0.5-1.5 c-0.2-0.5-0.4-1.1-0.6-1.7c-0.2-0.6-0.4-1.1-0.6-1.7c-0.2-0.5-0.3-1-0.5-1.5c-0.1-0.4-0.3-0.8-0.3-1c0-0.2-0.1-0.3-0.1-0.5 c0-0.2-0.1-0.3-0.1-0.4c-0.1,0-0.2,0-0.3,0c-0.1,0-0.2,0-0.4,0c-0.1,0-0.3,0-0.4,0c-0.1,0-0.2,0-0.3,0c0,0.1,0,0.2-0.1,0.4 c0,0.2-0.1,0.3-0.1,0.4c-0.1,0.2-0.2,0.5-0.3,0.9c-0.1,0.4-0.3,0.8-0.5,1.3c-0.2,0.5-0.4,1-0.6,1.6c-0.2,0.6-0.4,1.1-0.6,1.7 c-0.2,0.6-0.4,1.1-0.6,1.6c-0.2,0.5-0.4,1-0.5,1.3c-0.1,0.3-0.2,0.5-0.3,0.7c-0.1,0.2-0.2,0.3-0.4,0.4c-0.1,0.1-0.3,0.2-0.5,0.2 C234.4,75.7,234.1,75.7,233.8,75.8z M220.8,65.3c0.2,0,0.4,0.1,0.6,0.1c0.1,0,0.3,0.1,0.4,0.1c0.1,0,0.2,0.1,0.3,0.1 c0,0.1,0.1,0.1,0.1,0.2c0,0.2-0.1,0.4-0.2,0.6c-0.1,0.2-0.3,0.5-0.5,0.7c-0.4,0.5-0.8,1-1.2,1.5c-0.4,0.5-0.8,0.9-1.2,1.2 c-0.4,0.3-0.7,0.6-1,0.7c0,0,0,0,0,0c0,0,0,0.1,0,0.1c0,0,0,0,0,0.1c0,0,0.1,0.1,0.1,0.1c0,0,0.1,0.1,0.1,0.1 c0.2,0.3,0.5,0.7,0.8,1.1c0.3,0.4,0.6,0.8,0.9,1.2c0.3,0.4,0.6,0.8,0.9,1.1c0.3,0.3,0.5,0.6,0.8,0.9c0.1,0.1,0.3,0.3,0.5,0.4 c0.2,0.1,0.4,0.3,0.6,0.3c0.1,0,0.2,0.1,0.4,0.1c0.2,0,0.4,0,0.7,0.1c0.3,0,0.5,0,0.8,0c0.3,0,0.5,0,0.8,0c0.2,0,0.5,0,0.6,0 c0,0,0,0,0-0.1c0,0,0-0.1,0-0.1c0,0,0-0.1,0-0.1c-0.2,0-0.4,0-0.5,0c-0.2,0-0.3-0.1-0.5-0.1c-0.1,0-0.2-0.1-0.4-0.2 c-0.1-0.1-0.2-0.2-0.4-0.3c-0.2-0.2-0.5-0.5-0.8-0.8c-0.3-0.3-0.7-0.7-1-1.2c-0.4-0.4-0.7-0.8-1.1-1.3c-0.3-0.4-0.6-0.8-0.9-1.2 c-0.3-0.4-0.5-0.7-0.6-0.9v-0.1c0.2-0.3,0.5-0.6,0.8-0.9c0.3-0.4,0.7-0.7,1-1.1c0.3-0.4,0.7-0.8,1-1.2c0.2-0.3,0.4-0.5,0.6-0.6 c0.2-0.1,0.3-0.3,0.5-0.3c0.2-0.1,0.3-0.1,0.5-0.2c0.2,0,0.4-0.1,0.6-0.1c0,0,0-0.1,0-0.1c0,0,0-0.1,0-0.1c0,0,0-0.1,0-0.1 l-2.1,0.1c-0.2,0-0.4,0-0.6,0c-0.2,0-0.4,0-0.6,0c-0.2,0-0.4,0-0.7,0c0,0,0,0,0,0.1C220.8,65.1,220.8,65.2,220.8,65.3 C220.8,65.2,220.8,65.3,220.8,65.3z M217.8,70.4c0-0.2,0-0.4,0-0.7c0-0.3,0-0.5,0-0.8c0-0.3,0-0.6,0-0.9c0-0.3,0-0.6,0-0.8 c0-0.3,0-0.5,0-0.6c0-0.2,0-0.4,0-0.5c0-0.1,0.1-0.3,0.1-0.4c0.1-0.1,0.2-0.2,0.3-0.2c0.1,0,0.2,0,0.3-0.1c0.1,0,0.3,0,0.4-0.1 c0,0,0-0.1,0-0.1c0,0,0-0.1,0-0.1c0,0,0-0.1,0-0.1c-0.2,0-0.3,0-0.6,0c-0.2,0-0.5,0-0.8,0c-0.3,0-0.5,0-0.8,0c-0.6,0-1,0-1.4,0 c-0.4,0-0.7,0-0.9,0c0,0,0,0,0,0.1c0,0,0,0.1,0,0.1c0,0,0,0.1,0,0.1c0.1,0,0.3,0,0.4,0.1c0.1,0,0.3,0.1,0.4,0.1 c0.2,0.1,0.3,0.2,0.4,0.3c0.1,0.2,0.1,0.4,0.1,0.6c0,0.2,0,0.4,0,0.7c0,0.3,0,0.6,0,0.9c0,0.3,0,0.7,0,1.1c0,0.4,0,0.7,0,1.1 c0,0.4,0,0.8,0,1.2c0,0.4,0,0.8,0,1.2c0,0.4,0,0.8,0,1.1c0,0.3,0,0.6,0,0.8c0,0.4-0.1,0.6-0.1,0.8c-0.1,0.2-0.2,0.3-0.4,0.3 c-0.1,0-0.1,0-0.2,0c-0.1,0-0.1,0-0.2,0c-0.1,0-0.2,0-0.3,0c0,0,0,0,0,0.1c0,0,0,0.1,0,0.1c0,0,0,0.1,0,0.1c0.1,0,0.2,0,0.4,0 c0.2,0,0.4,0,0.6,0c0.2,0,0.5,0,0.7,0c0.2,0,0.5,0,0.7,0c0.3,0,0.6,0,0.9,0c0.3,0,0.6,0,0.8,0c0.3,0,0.5,0,0.6,0c0,0,0,0,0-0.1 c0,0,0-0.1,0-0.1c0,0,0-0.1,0-0.1c-0.1,0-0.3,0-0.4,0c-0.1,0-0.3,0-0.4-0.1c-0.1,0-0.3-0.1-0.3-0.2c-0.1-0.1-0.1-0.2-0.2-0.3 c0-0.1-0.1-0.3-0.1-0.5c0-0.4,0-0.8,0-1.3c0-0.5,0-1,0-1.5C217.8,71.4,217.8,70.9,217.8,70.4z"></path> </g> <g id="XMLID_17_"> <path id="XMLID_27_" class="st3" d="M2.9,68.9c0.7,0.1,1.4,0.2,1.9,0.3c0.5,0.1,1,0.2,1.4,0.3c0.4,0.1,0.9,0.3,1.5,0.4 c0.8,0.3,1.5,0.7,2,1.3c0.5,0.5,1,1.2,1.4,2.1c0.4,0.8,0.8,1.8,1.2,3c0.6,1.5,1.2,3.5,2,5.8c0.8,2.4,1.6,5,2.5,8 c0.9,3,1.9,6,2.8,9.3c1,3.2,1.9,6.4,2.8,9.6c0.9,3.2,1.8,6.3,2.6,9.2c0.8,2.9,1.5,5.5,2.1,7.8c0.2,0,0.5-0.1,0.9-0.1 c0.4,0,0.9,0,1.4,0c0.5,0,0.9,0,1.4,0c0.4,0,0.7,0,0.8,0c0.6-2,1.4-4.2,2.3-6.8c0.9-2.6,1.9-5.3,2.9-8.2c1-2.9,2.1-5.8,3.2-8.7 c1.1-2.9,2.1-5.8,3.1-8.5c1-2.7,1.9-5.1,2.7-7.3c0,0,0.1-0.1,0.2-0.1c0.1,0,0.1-0.1,0.2-0.1c0.6,1.4,1.2,3.1,2,5.2 c0.8,2.1,1.7,4.4,2.6,6.9c0.9,2.5,1.9,5.1,2.9,7.7c1,2.6,1.9,5.2,2.8,7.8c0.9,2.5,1.7,4.8,2.5,7c0.7,2.1,1.4,3.9,1.8,5.4 c0.3-0.1,0.7-0.2,1.3-0.2c0.6,0,1.1,0,1.7,0c0.6,0,0.9,0,1.2,0.1c0.6-1.9,1.3-4.2,2.1-6.8c0.8-2.6,1.7-5.5,2.6-8.6 c0.9-3.1,1.9-6.2,2.9-9.4c1-3.2,2-6.4,3-9.5c1-3.1,1.9-6,2.8-8.7c0.9-2.7,1.7-5,2.3-7c0.4-1.3,0.8-2.2,1.2-3 c0.4-0.8,0.8-1.4,1.3-1.8c0.5-0.5,1.1-0.8,1.7-1.2c0.5-0.2,1-0.4,1.6-0.6c0.6-0.2,1.5-0.3,2.4-0.5c0.1-0.1,0.1-0.3,0.1-0.5 c0-0.2,0-0.5,0-0.7c0-0.2,0-0.4-0.1-0.4c-1.1,0-2.4,0.1-4,0.1c-1.6,0.1-3.4,0.1-5.5,0.1c-1.3,0-2.7,0-4.1-0.1 c-1.4,0-2.7-0.1-3.9-0.1c-1.2,0-2.2-0.1-2.9-0.1c-0.1,0.1-0.1,0.2-0.1,0.4c0,0.2,0,0.4,0,0.7c0,0.2,0.1,0.4,0.2,0.5 c1,0.2,1.8,0.3,2.5,0.4c0.7,0.1,1.3,0.2,1.8,0.4c0.5,0.1,1,0.3,1.5,0.5c1,0.3,1.6,0.8,2,1.4c0.3,0.6,0.5,1.3,0.5,2 c0,0.7-0.2,1.5-0.3,2.3c-0.2,1.1-0.6,2.5-1,4.2c-0.4,1.7-1,3.6-1.6,5.7c-0.6,2.1-1.2,4.2-1.9,6.5c-0.6,2.2-1.3,4.4-1.9,6.6 c-0.6,2.2-1.3,4.2-1.9,6.1c-0.6,1.9-1.1,3.6-1.6,5c0,0.1-0.1,0.1-0.2,0.2c-0.1,0-0.1,0-0.2-0.1c-0.4-0.9-0.9-2.2-1.5-3.8 c-0.6-1.6-1.3-3.4-2.1-5.5c-0.8-2.1-1.6-4.3-2.5-6.6c-0.9-2.3-1.7-4.7-2.6-7c-0.9-2.3-1.7-4.6-2.5-6.7c-0.8-2.2-1.5-4.1-2.1-5.8 c-0.6-1.7-1.1-3.2-1.4-4.3c-0.2,0-0.6,0.1-1.1,0.1c-0.5,0-1,0-1.5,0c-0.5,0-0.9,0-1.2,0c-0.3,1.3-0.8,2.9-1.5,4.8 c-0.6,1.9-1.3,4-2.1,6.4c-0.8,2.3-1.6,4.8-2.5,7.3c-0.9,2.5-1.8,5-2.7,7.5c-0.9,2.5-1.7,4.8-2.5,7c-0.8,2.2-1.5,4.2-2.2,5.9 c0,0.1-0.1,0.2-0.2,0.2c-0.1,0-0.1,0-0.2,0c-0.5-1.7-1.2-3.7-1.9-6c-0.7-2.3-1.5-4.8-2.3-7.4c-0.8-2.6-1.6-5.3-2.4-8 c-0.8-2.7-1.6-5.3-2.3-7.9c-0.7-2.5-1.4-4.8-1.9-6.9c-0.2-0.7-0.3-1.3-0.2-1.9c0.1-0.5,0.4-0.9,0.9-1.3c0.3-0.2,0.8-0.3,1.5-0.5 c0.7-0.1,1.6-0.3,2.8-0.6c0.1-0.1,0.2-0.2,0.2-0.5c0-0.2,0-0.5,0-0.7c0-0.2-0.1-0.4-0.2-0.4c-0.8,0-1.8,0-2.8,0.1 c-1,0-2.3,0.1-3.8,0.1c-1.5,0-3.4,0.1-5.7,0.1c-1.6,0-3.1,0-4.3,0c-1.2,0-2.3-0.1-3.3-0.1c-1,0-1.9-0.1-2.7-0.1c-0.9,0-1.7,0-2.6,0 c-0.1,0-0.2,0.2-0.2,0.4c0,0.2-0.1,0.5-0.1,0.7C2.8,68.6,2.9,68.8,2.9,68.9"></path> <path id="XMLID_24_" class="st3" d="M107.3,123.6c-0.8-0.1-1.4-0.2-1.9-0.3c-0.5-0.1-0.9-0.2-1.2-0.3c-0.4-0.1-0.7-0.3-1-0.6 c-0.3-0.3-0.5-0.6-0.6-1.1c-0.1-0.5-0.2-1.2-0.3-2c0-1.1,0-2.3,0-3.6c0-1.4,0-2.8,0-4.3c0-1.5,0-3,0-4.4c0-1.5,0-2.8,0-4.1 c0-1.4,0-2.9,0-4.5c0-1.6,0-3.2,0.1-4.7c0-1.5,0-2.9,0.1-4.1c0-1.2,0-2.1,0-2.8c-1.1,0.5-2.3,0.9-3.6,1.3c-1.3,0.4-2.7,0.7-4,1 c-1.3,0.3-2.6,0.5-3.7,0.6c-1.1,0.2-2,0.2-2.6,0.3c0,0.1,0,0.2-0.1,0.5c0,0.2,0,0.5,0,0.7c0,0.2,0,0.4,0.1,0.5 c0.7,0.2,1.4,0.4,1.9,0.7c0.5,0.2,0.9,0.5,1.4,1c0.3,0.4,0.5,0.8,0.6,1.2c0.1,0.4,0.1,0.8,0.1,1.2c0.1,0.5,0.1,1.2,0.1,2.2 c0,1,0,2.1,0.1,3.2c0,1.2,0,2.4,0,3.6c0,1.2,0,2.5,0,3.9c0,1.4,0,2.8,0,4.2c0,1.4,0,2.6-0.1,3.7c0,1.1,0,1.9-0.1,2.5 c0,1.2-0.2,2.1-0.4,2.7c-0.3,0.6-0.7,1.1-1.4,1.3c-0.4,0.2-0.9,0.3-1.5,0.4c-0.6,0.1-1.1,0.2-1.7,0.2c-0.1,0-0.1,0.2-0.1,0.4 c0,0.2,0,0.5,0,0.7c0,0.2,0.1,0.4,0.1,0.5c1,0,2.3-0.1,4-0.1c1.7-0.1,3.7-0.1,6.1-0.1c1.9,0,3.6,0.1,5.3,0.1 c1.6,0.1,3.1,0.1,4.2,0.1c0.1-0.1,0.2-0.2,0.3-0.4c0-0.2,0.1-0.4,0.1-0.7C107.3,123.9,107.3,123.7,107.3,123.6 M102.3,74 c0-0.2,0-0.5-0.1-0.9c-0.1-0.3-0.1-0.7-0.3-1c-0.1-0.4-0.3-0.7-0.4-0.9c-0.2-0.2-0.6-0.4-1.2-0.6c-0.6-0.3-1.3-0.4-2.2-0.4 c-0.6,0-1.2,0.1-1.8,0.3c-0.7,0.2-1.3,0.4-1.9,0.6c-0.6,0.3-1,0.5-1.3,0.8c-0.2,0.3-0.3,0.6-0.4,1c-0.1,0.4-0.2,0.8-0.2,1.3 c0,0.4,0,0.9,0.1,1.3c0,0.4,0.1,0.9,0.3,1.4c0.2,0.5,0.4,1,0.7,1.4c0.3,0.4,0.7,0.7,1.3,0.9c0.3,0.1,0.7,0.2,1.2,0.2 c0.5,0,1,0,1.6-0.1c0.6-0.1,1.1-0.1,1.5-0.3c0.5-0.1,0.8-0.2,1-0.3c0.6-0.4,1.1-1.1,1.5-1.9C102.1,75.8,102.3,74.9,102.3,74z"></path> <path id="XMLID_23_" class="st3" d="M110.3,123.6c-0.1,0.2-0.1,0.5-0.1,0.8c0,0.3,0,0.6,0.1,0.8c0.5,0,0.9,0,1.4-0.1 c0.5,0,1.1-0.1,1.8-0.1c0.7,0,1.5-0.1,2.5-0.1c1,0,2.2,0,3.7,0c2.2,0,4.1,0,5.7,0.1c1.7,0.1,3.2,0.1,4.6,0.2c0-0.1,0.1-0.3,0.1-0.5 c0-0.2,0-0.4,0-0.7c0-0.2,0-0.4,0-0.4c-0.7-0.1-1.3-0.2-1.8-0.3c-0.5-0.1-0.9-0.2-1.3-0.4c-0.4-0.1-0.8-0.2-1-0.5 c-0.3-0.2-0.5-0.6-0.7-1.1c-0.2-0.5-0.3-1.3-0.3-2.2c0-0.8-0.1-1.9-0.1-3.3c0-1.4,0-2.9,0-4.6c0-1.7,0-3.4,0-5.2c0-1.8,0-3.5,0-5.1 c0-1.6,0-3,0-4.2c0-0.5,0.1-0.9,0.3-1.3c0.2-0.3,0.4-0.6,0.6-0.8c0.9-0.7,1.8-1.1,2.8-1.5c1-0.3,1.9-0.4,2.8-0.4 c1,0,1.8,0.1,2.6,0.3c0.7,0.2,1.4,0.6,2,1c0.8,0.6,1.4,1.4,1.8,2.3c0.4,0.9,0.7,1.8,0.9,2.7c0.2,0.8,0.3,1.8,0.3,3.2 c0.1,1.4,0.1,2.9,0.2,4.6c0,1.7,0,3.3,0,5c0,1.7,0,3.2-0.1,4.5c0,1.4-0.1,2.4-0.1,3.2c-0.1,1-0.2,1.7-0.5,2.3 c-0.3,0.5-0.8,0.9-1.5,1.1c-0.3,0.1-0.7,0.2-1.1,0.3c-0.4,0.1-1,0.2-1.7,0.3c0,0-0.1,0.2-0.1,0.4c0,0.2,0,0.5,0,0.7 c0,0.2,0,0.4,0.1,0.5c0.9,0,1.8-0.1,2.8-0.1c0.9,0,2-0.1,3.2-0.1c1.2,0,2.7,0,4.4,0c1.9,0,3.3,0,4.5,0.1c1.1,0,2.1,0.1,2.7,0.1 c0.7,0,1.2,0.1,1.7,0.1c0.1-0.1,0.2-0.3,0.2-0.5c0.1-0.2,0.1-0.4,0.1-0.7c0-0.2,0-0.4,0-0.5c-1-0.1-1.8-0.3-2.4-0.6 c-0.6-0.2-1.2-0.5-1.7-0.9c-0.3-0.2-0.5-0.4-0.6-0.7c-0.1-0.3-0.2-0.6-0.2-1c0-0.6-0.1-1.5-0.1-2.6c0-1.1,0-2.3,0-3.6 c0-1.3,0-2.7,0-4.1c0-1.4,0-2.7,0-4c0-1.3,0-2.3,0-3.2c0-2.2-0.1-4.2-0.4-6c-0.3-1.8-0.9-3.4-1.7-4.8c-0.9-1.6-2.1-2.9-3.6-3.7 c-1.5-0.9-3.2-1.3-5.3-1.3c-1.5,0-3.3,0.5-5.4,1.5c-2.1,1-4.5,2.5-7,4.5c-0.1,0.1-0.1,0.1-0.2,0.1c-0.1,0-0.1-0.1-0.2-0.3 c0-0.8,0.1-1.7,0.2-2.7c0-1,0.1-1.9,0.2-2.8c0-0.1,0-0.2-0.1-0.3c-0.1-0.1-0.1-0.2-0.2-0.3c-1,0.6-2.3,1.1-3.8,1.6 c-1.5,0.5-3.1,1-4.8,1.4c-1.7,0.4-3.5,0.7-5.2,0.9c-0.1,0.1-0.1,0.2-0.2,0.4c0,0.2-0.1,0.4-0.1,0.6c0,0.2,0,0.3,0,0.4 c1.3,0.4,2.2,0.8,2.7,1.3c0.6,0.4,1,0.8,1.1,1.2c0.2,0.4,0.3,0.7,0.3,1.1c0,0.2,0,0.7,0.1,1.4c0,0.7,0,1.5,0.1,2.4 c0,0.9,0,1.9,0,2.8c0,1,0,1.8,0,2.6c0,1,0,2.1,0,3.4c0,1.3,0,2.7,0,4.1c0,1.4,0,2.7-0.1,3.9c0,1.2-0.1,2.2-0.1,2.9 c0,1.2-0.2,2.1-0.6,2.7c-0.3,0.6-0.8,1-1.3,1.2C112.1,123.3,111.1,123.5,110.3,123.6"></path> <path id="XMLID_22_" class="st3" d="M156.8,123.6c-0.1,0.2-0.1,0.5-0.1,0.8c0,0.3,0,0.6,0.1,0.8c0.5,0,0.9,0,1.4-0.1 c0.5,0,1.1-0.1,1.8-0.1c0.7,0,1.5-0.1,2.5-0.1c1,0,2.2,0,3.7,0c2.2,0,4.1,0,5.7,0.1c1.7,0.1,3.2,0.1,4.6,0.2c0-0.1,0.1-0.3,0.1-0.5 c0-0.2,0-0.4,0-0.7c0-0.2,0-0.4,0-0.4c-0.7-0.1-1.3-0.2-1.8-0.3c-0.5-0.1-0.9-0.2-1.3-0.4c-0.4-0.1-0.8-0.2-1-0.5 c-0.3-0.2-0.5-0.6-0.7-1.1c-0.2-0.5-0.3-1.3-0.3-2.2c0-0.8-0.1-1.9-0.1-3.3c0-1.4,0-2.9,0-4.6c0-1.7,0-3.4,0-5.2c0-1.8,0-3.5,0-5.1 c0-1.6,0-3,0-4.2c0-0.5,0.1-0.9,0.3-1.3c0.2-0.3,0.4-0.6,0.6-0.8c0.9-0.7,1.8-1.1,2.8-1.5c1-0.3,1.9-0.4,2.8-0.4 c1,0,1.8,0.1,2.6,0.3c0.7,0.2,1.4,0.6,2,1c0.8,0.6,1.4,1.4,1.8,2.3c0.4,0.9,0.7,1.8,0.9,2.7c0.2,0.8,0.3,1.8,0.3,3.2 c0.1,1.4,0.1,2.9,0.2,4.6c0,1.7,0,3.3,0,5c0,1.7,0,3.2-0.1,4.5c0,1.4-0.1,2.4-0.1,3.2c-0.1,1-0.2,1.7-0.5,2.3 c-0.3,0.5-0.8,0.9-1.5,1.1c-0.3,0.1-0.7,0.2-1.1,0.3c-0.4,0.1-1,0.2-1.7,0.3c0,0-0.1,0.2-0.1,0.4c0,0.2,0,0.5,0,0.7 c0,0.2,0,0.4,0.1,0.5c0.9,0,1.8-0.1,2.8-0.1c0.9,0,2-0.1,3.2-0.1c1.2,0,2.7,0,4.4,0c1.9,0,3.3,0,4.5,0.1c1.1,0,2.1,0.1,2.7,0.1 c0.7,0,1.2,0.1,1.7,0.1c0.1-0.1,0.2-0.3,0.2-0.5c0.1-0.2,0.1-0.4,0.1-0.7c0-0.2,0-0.4,0-0.5c-1-0.1-1.8-0.3-2.4-0.6 c-0.6-0.2-1.2-0.5-1.7-0.9c-0.3-0.2-0.5-0.4-0.6-0.7c-0.1-0.3-0.2-0.6-0.2-1c0-0.6-0.1-1.5-0.1-2.6c0-1.1,0-2.3,0-3.6 c0-1.3,0-2.7,0-4.1c0-1.4,0-2.7,0-4c0-1.3,0-2.3,0-3.2c0-2.2-0.1-4.2-0.4-6c-0.3-1.8-0.9-3.4-1.7-4.8c-0.9-1.6-2.1-2.9-3.6-3.7 c-1.5-0.9-3.2-1.3-5.3-1.3c-1.5,0-3.3,0.5-5.4,1.5c-2.1,1-4.5,2.5-7,4.5c-0.1,0.1-0.1,0.1-0.2,0.1c-0.1,0-0.1-0.1-0.2-0.3 c0-0.8,0.1-1.7,0.2-2.7c0-1,0.1-1.9,0.2-2.8c0-0.1,0-0.2-0.1-0.3c-0.1-0.1-0.1-0.2-0.2-0.3c-1,0.6-2.3,1.1-3.8,1.6 c-1.5,0.5-3.1,1-4.8,1.4c-1.7,0.4-3.5,0.7-5.2,0.9c-0.1,0.1-0.1,0.2-0.2,0.4c0,0.2-0.1,0.4-0.1,0.6c0,0.2,0,0.3,0,0.4 c1.3,0.4,2.2,0.8,2.7,1.3c0.6,0.4,1,0.8,1.1,1.2c0.2,0.4,0.3,0.7,0.3,1.1c0,0.2,0,0.7,0.1,1.4c0,0.7,0,1.5,0.1,2.4 c0,0.9,0,1.9,0,2.8c0,1,0,1.8,0,2.6c0,1,0,2.1,0,3.4c0,1.3,0,2.7,0,4.1c0,1.4,0,2.7-0.1,3.9c0,1.2-0.1,2.2-0.1,2.9 c0,1.2-0.2,2.1-0.6,2.7c-0.3,0.6-0.8,1-1.3,1.2C158.6,123.3,157.7,123.5,156.8,123.6"></path> <path id="XMLID_19_" class="st3" d="M220.7,89.5c1.1,0,2,0.3,2.8,0.9c0.8,0.6,1.5,1.4,2.1,2.5c0.6,1,1,2.2,1.4,3.5 c0.3,1.3,0.6,2.6,0.6,4c0,0.2-0.1,0.4-0.2,0.5c-0.1,0.2-0.2,0.3-0.3,0.3c-0.4,0.1-1,0.1-1.8,0.2c-0.8,0.1-1.8,0.1-2.8,0.2 c-1.1,0-2.1,0.1-3.2,0.1c-1.1,0-2,0-2.9,0.1c-0.9,0-1.5,0-1.9,0c0,0-0.1-0.1-0.2-0.2c-0.1-0.1-0.1-0.2-0.1-0.3 c0-2.5,0.3-4.7,0.9-6.4c0.6-1.8,1.3-3.1,2.3-4.1C218.4,90,219.4,89.5,220.7,89.5 M237.6,115.6c-1.1,1-2.2,1.7-3.3,2.3 c-1.1,0.5-2.2,0.9-3.4,1.1c-1.2,0.2-2.3,0.3-3.5,0.3c-2,0-3.8-0.3-5.5-1c-1.7-0.7-3.1-1.8-4.4-3.3c-0.7-0.9-1.3-1.9-1.9-3 c-0.5-1.1-0.9-2.2-1.2-3.3c-0.3-1.1-0.4-2.2-0.4-3.3c0-0.2,0-0.4,0.1-0.6c0.1-0.2,0.2-0.3,0.3-0.3c1.3-0.1,2.8-0.2,4.6-0.3 c1.8-0.1,3.6-0.2,5.5-0.4c1.9-0.1,3.8-0.3,5.5-0.4c1.8-0.2,3.4-0.3,4.7-0.5c1.3-0.2,2.4-0.4,3-0.6c0.1,0,0.1-0.2,0.2-0.3 c0.1-0.2,0.1-0.4,0.2-0.6c0-0.2,0-0.4,0-0.5c-0.3,0-0.6-0.2-0.8-0.3c-0.2-0.2-0.3-0.3-0.4-0.5c-0.1-1-0.4-2.2-0.8-3.3 c-0.4-1.2-0.9-2.3-1.6-3.5c-0.7-1.2-1.5-2.2-2.5-3.2c-1-0.9-2.2-1.7-3.6-2.3c-1.4-0.6-3-0.9-4.9-0.9c-1.1,0-2.2,0.1-3.5,0.4 c-1.2,0.2-2.5,0.6-3.6,1c-1.2,0.4-2.3,1-3.3,1.6c-1.7,1-3.2,2.3-4.4,3.9c-1.3,1.6-2.3,3.5-3,5.6c-0.7,2.1-1.1,4.4-1.1,6.9 c0,3,0.4,5.7,1.3,8.3c0.8,2.6,2.2,4.8,4,6.8c1.4,1.4,3.2,2.5,5.1,3.3c2,0.8,4.2,1.2,6.7,1.2c1.9,0,3.8-0.4,5.7-1 c1.9-0.7,3.7-1.7,5.4-2.9c1.7-1.3,3.3-2.7,4.8-4.4c0-0.1,0.1-0.2,0.1-0.4c0-0.2,0.1-0.5,0.1-0.7c0-0.3,0-0.5,0-0.6 c0-0.1-0.1-0.2-0.2-0.2C237.7,115.6,237.6,115.6,237.6,115.6z"></path> <path id="XMLID_18_" class="st3" d="M267.1,87c-0.7,0-1.3,0.1-2,0.4c-0.6,0.2-1.3,0.5-1.8,0.9c-0.6,0.4-1.1,0.7-1.5,1.1 c-1,0.9-1.9,1.8-2.7,2.7c-0.8,0.9-1.7,1.9-2.5,2.9c-0.1,0-0.1,0.1-0.2,0.1c-0.1,0-0.1-0.1-0.2-0.2c0-0.4,0-0.9,0-1.6 c0-0.7,0-1.4,0.1-2.2c0-0.8,0.1-1.5,0.1-2.2c0-0.7,0.1-1.3,0.1-1.7c0-0.1-0.1-0.1-0.2-0.2c-0.1-0.1-0.3-0.1-0.4-0.2 c-0.8,0.5-1.8,0.9-2.9,1.3c-1.1,0.4-2.3,0.8-3.5,1.1c-1.2,0.3-2.4,0.6-3.6,0.8c-1.2,0.2-2.3,0.4-3.3,0.5c-0.1,0-0.1,0.2-0.2,0.3 c0,0.2-0.1,0.4-0.1,0.6c0,0.2,0,0.4,0,0.5c1.3,0.5,2.2,0.9,2.8,1.4c0.6,0.5,1,0.9,1.1,1.3c0.2,0.4,0.2,0.8,0.2,1.1 c0.1,0.5,0.1,1.2,0.1,2c0,0.8,0,1.8,0,2.8c0,1.1,0,2.2,0,3.4c0,1.7,0,3.3,0,5c0,1.6,0,3.2,0,4.6c0,1.4-0.1,2.6-0.1,3.7 c0,1-0.1,1.7-0.1,2.2c0,1.2-0.2,2-0.5,2.5c-0.3,0.5-0.6,0.9-1,1c-0.4,0.1-1,0.3-1.6,0.4c-0.6,0.1-1.2,0.2-1.8,0.3 c-0.1,0.1-0.1,0.3-0.1,0.5c0,0.2,0,0.4,0,0.7c0,0.2,0.1,0.4,0.1,0.5c0.4,0,1,0,1.8,0c0.8,0,1.6-0.1,2.6-0.1c0.9,0,1.9-0.1,2.8-0.1 c0.9,0,1.7,0,2.5,0c1.6,0,3.2,0,4.7,0.1c1.5,0,2.8,0.1,4,0.1c1.2,0,2.1,0.1,2.9,0.1c0.1-0.1,0.2-0.3,0.2-0.5c0-0.2,0.1-0.4,0.1-0.7 c0-0.2,0-0.4,0-0.5c-0.8-0.1-1.5-0.2-2.2-0.3c-0.7-0.1-1.5-0.3-2.2-0.5c-0.7-0.2-1.3-0.6-1.5-1.2c-0.3-0.6-0.4-1.4-0.5-2.5 c0-0.3-0.1-0.8-0.1-1.6c0-0.8,0-1.8-0.1-3c0-1.2,0-2.5-0.1-3.9c0-1.4,0-2.8,0-4.2c0-1.4,0-2.7,0-3.9c0-1.2,0-2.3,0-3.1 c0-0.4,0.1-0.9,0.2-1.3c0.1-0.4,0.3-0.7,0.4-1c0.5-0.7,1.1-1.2,1.7-1.6c0.6-0.4,1.3-0.6,2.1-0.6c1.2,0,2.4,0.3,3.6,1 c1.2,0.6,2.2,1.4,3.1,2.4c0.1,0,0.3,0,0.5-0.1c0.2-0.1,0.3-0.1,0.4-0.2c0.3-0.4,0.7-0.9,1-1.5c0.4-0.6,0.7-1.3,1.1-2 c0.3-0.7,0.6-1.3,0.9-1.9c0.2-0.6,0.4-1.1,0.4-1.4c0-0.1,0-0.3,0.1-0.6c0-0.3,0-0.5,0-0.7c0-0.2,0-0.4-0.1-0.5 c-0.4-0.7-0.9-1.3-1.7-1.7C269.2,87.2,268.2,87,267.1,87"></path> </g> <g id="XMLID_2_"> <path id="XMLID_11_" class="st0" d="M88.1,145.4c0,0-0.1,0-0.1,0c-0.1,0-0.1,0-0.2,0c-0.1,0-0.1,0.1-0.1,0.1c0,0.1,0,0.3,0.1,0.5 c0,0.2,0.1,0.5,0.1,0.7c0,0.3,0.1,0.5,0.1,0.8c0,0.3,0.1,0.5,0.1,0.7c0,0.2,0.1,0.3,0.1,0.4c0.1,0.1,0.4,0.2,0.7,0.3 c0.3,0.1,0.7,0.2,1.1,0.2c0.4,0.1,0.8,0.1,1.3,0.1c1,0,1.9-0.2,2.6-0.5c0.7-0.3,1.3-0.8,1.7-1.4c0.4-0.6,0.6-1.3,0.6-2.1 c0-0.5-0.1-1-0.3-1.4s-0.4-0.8-0.8-1.1c-0.3-0.3-0.7-0.7-1.2-1c-0.3-0.2-0.5-0.3-0.8-0.5c-0.3-0.2-0.5-0.3-0.8-0.5 c-0.3-0.2-0.5-0.4-0.8-0.6c-0.4-0.3-0.8-0.7-1-1.1c-0.2-0.4-0.4-0.8-0.4-1.3c0-0.4,0.1-0.8,0.3-1.1c0.2-0.3,0.4-0.6,0.7-0.8 c0.3-0.2,0.7-0.3,1.2-0.3c0.3,0,0.6,0,0.9,0.1c0.3,0.1,0.5,0.2,0.8,0.4c0.2,0.1,0.4,0.3,0.5,0.5c0.1,0.2,0.2,0.5,0.3,0.8 c0.1,0.3,0.1,0.7,0.2,1.2c0,0,0.1,0,0.1,0c0.1,0,0.1,0,0.2,0c0.1,0,0.1,0,0.1-0.1c0-0.6,0.1-1.2,0.2-1.7c0.1-0.5,0.1-0.9,0.2-1.3 c-0.3,0-0.6-0.1-0.9-0.1c-0.3-0.1-0.6-0.1-1-0.1c-0.4-0.1-0.8-0.1-1.3-0.1c-0.6,0-1.2,0.1-1.7,0.3c-0.5,0.2-1,0.4-1.4,0.7 c-0.4,0.3-0.7,0.7-0.9,1.2c-0.2,0.5-0.3,1-0.3,1.6c0,0.6,0.1,1.2,0.4,1.7c0.2,0.5,0.6,0.9,1.1,1.4c0.5,0.4,1.1,0.9,1.8,1.3 c0.6,0.4,1.1,0.7,1.4,1.1c0.4,0.3,0.6,0.7,0.8,1c0.2,0.3,0.3,0.7,0.2,1.2c0,0.4-0.1,0.8-0.3,1.1c-0.2,0.3-0.4,0.6-0.7,0.7 c-0.3,0.2-0.7,0.3-1.1,0.3c-0.4,0-0.8,0-1.1-0.1c-0.4-0.1-0.7-0.2-1-0.4c-0.3-0.2-0.5-0.4-0.7-0.6c-0.2-0.2-0.4-0.5-0.5-0.9 C88.4,146.3,88.3,145.9,88.1,145.4 M75.8,136c0.3,0,0.5,0.1,0.6,0.1c0.2,0,0.3,0.1,0.4,0.1c0.2,0.1,0.3,0.2,0.4,0.4 c0.1,0.2,0.1,0.4,0.1,0.6c0,0.5,0.1,1.1,0.1,1.9c0,0.8,0,1.7,0,2.7c0,0.6,0,1.2,0,1.8c0,0.6,0,1.1,0,1.6c0,0.5,0,0.9,0,1.3 c0,0.4,0,0.7,0,0.9c0,0.3,0,0.5-0.1,0.6c0,0.2-0.1,0.3-0.2,0.4c-0.1,0.1-0.2,0.1-0.4,0.2c-0.1,0-0.3,0.1-0.4,0.1 c-0.2,0-0.3,0-0.5,0.1c0,0,0,0.1,0,0.1c0,0.1,0,0.1,0,0.2c0,0.1,0,0.1,0,0.1c0.2,0,0.4,0,0.6,0c0.2,0,0.4,0,0.6,0 c0.2,0,0.5,0,0.8,0c0.3,0,0.6,0,1.1,0c0.4,0,0.7,0,1,0c0.3,0,0.6,0,0.9,0c0.3,0,0.6,0,0.9,0c0,0,0,0,0-0.1c0-0.1,0-0.1,0-0.2 c0-0.1,0-0.1,0-0.1c-0.2,0-0.4,0-0.5-0.1c-0.2,0-0.3-0.1-0.5-0.1c-0.2,0-0.4-0.1-0.5-0.3c-0.1-0.1-0.2-0.3-0.2-0.4 c0-0.2,0-0.3,0-0.5c0-0.3,0-0.6,0-1c0-0.4,0-1,0-1.6c0-0.7,0-1.5,0-2.5c0-0.5,0-1,0-1.4c0-0.5,0-0.9,0-1.4c0-0.4,0-0.8,0-1.1 c0-0.3,0-0.6,0-0.8c0-0.3,0-0.5,0.1-0.7c0-0.2,0.1-0.3,0.2-0.4c0.1-0.1,0.2-0.2,0.3-0.2c0.1,0,0.2-0.1,0.4-0.1 c0.2,0,0.4-0.1,0.6-0.1c0,0,0-0.1,0-0.1c0-0.1,0-0.1,0-0.2c0-0.1,0-0.1,0-0.1c-0.1,0-0.3,0-0.5,0c-0.2,0-0.5,0-0.9,0 c-0.4,0-0.8,0-1.3,0c-0.6,0-1.2,0-1.7,0c-0.5,0-0.9,0-1.2,0c0,0,0,0.1,0,0.1c0,0.1,0,0.1,0,0.2C75.8,135.9,75.8,135.9,75.8,136z M55.8,136c0.3,0,0.5,0.1,0.8,0.1c0.2,0.1,0.4,0.1,0.6,0.3c0.1,0.1,0.3,0.2,0.4,0.4c0.1,0.1,0.2,0.3,0.3,0.5 c0.1,0.2,0.1,0.4,0.1,0.5c0,1.1,0,2.2,0,3.2c0,1,0,1.9-0.1,2.8c0,0.8,0,1.6-0.1,2.2c0,0.6-0.1,1-0.1,1.3c0,0.3-0.1,0.5-0.1,0.7 c-0.1,0.2-0.2,0.3-0.3,0.4c-0.1,0.1-0.2,0.2-0.4,0.2c-0.1,0-0.3,0.1-0.5,0.1c-0.2,0-0.4,0-0.6,0.1c0,0,0,0.1,0,0.1 c0,0.1,0,0.1,0,0.2c0,0.1,0,0.1,0,0.1c0.2,0,0.5,0,0.9,0c0.4,0,0.9,0,1.5,0c0.3,0,0.7,0,1,0c0.3,0,0.6,0,0.9,0c0.3,0,0.5,0,0.6,0 c0,0,0-0.1,0-0.1c0-0.1,0-0.1,0-0.2c0-0.1,0-0.1,0-0.1c-0.2,0-0.4-0.1-0.6-0.1c-0.2,0-0.4-0.1-0.5-0.1c-0.2,0-0.4-0.1-0.5-0.2 c-0.1-0.1-0.2-0.2-0.3-0.4c-0.1-0.2-0.1-0.4-0.1-0.7c0-0.2,0-0.5,0-0.8c0-0.4,0-0.8,0-1.4c0-0.5,0-1.1,0-1.7c0-0.6,0-1.2,0-1.8 c0-0.6,0-1.2,0-1.7c0-0.5,0-1,0-1.4c0,0,0,0,0,0c0,0,0,0,0.1,0c0.1,0.2,0.4,0.5,0.7,0.9c0.3,0.4,0.7,0.9,1.2,1.5 c0.4,0.6,0.9,1.2,1.4,1.9c0.5,0.7,1,1.3,1.5,2c0.5,0.7,1,1.3,1.4,1.9c0.5,0.6,0.8,1.1,1.2,1.6c0.3,0.4,0.6,0.8,0.7,1 c0.2,0,0.3,0,0.6,0c0.2,0,0.4,0,0.6,0c0.2,0,0.4,0,0.5,0c0-0.2,0-0.5,0-0.9c0-0.3,0-0.7,0-1c0-0.4,0-0.7,0-1c0-0.6,0-1.1,0-1.8 c0-0.6,0-1.3,0-1.9c0-0.6,0-1.3,0-1.9c0-0.6,0-1.2,0-1.7c0-0.5,0-1,0.1-1.4c0-0.2,0-0.4,0.1-0.6c0.1-0.2,0.1-0.3,0.2-0.4 c0.1-0.1,0.3-0.2,0.5-0.3c0.1,0,0.2-0.1,0.4-0.1c0.1,0,0.3,0,0.5-0.1c0,0,0-0.1,0-0.1c0-0.1,0-0.1,0-0.2c0-0.1,0-0.1,0-0.1 c-0.1,0-0.3,0-0.5,0c-0.2,0-0.5,0-0.8,0c-0.3,0-0.6,0-0.8,0c-0.5,0-1,0-1.5,0c-0.5,0-0.9,0-1.2,0c0,0,0,0.1,0,0.1 c0,0.1,0,0.1,0,0.2c0,0.1,0,0.1,0,0.1c0.3,0,0.5,0.1,0.7,0.1c0.2,0,0.4,0.1,0.5,0.1c0.2,0.1,0.4,0.1,0.5,0.2 c0.1,0.1,0.2,0.2,0.3,0.4c0.1,0.2,0.1,0.4,0.1,0.6c0,0.2,0.1,0.6,0.1,1.1c0,0.5,0,1,0,1.6c0,0.6,0,1.3,0,1.9c0,0.7,0,1.3,0,2 c0,0.7,0,1.3,0,1.8c0,0,0,0,0,0c0,0,0,0,0,0c-0.2-0.3-0.5-0.6-0.9-1.1c-0.4-0.4-0.7-0.9-1.2-1.5c-0.4-0.5-0.9-1.1-1.4-1.7 c-0.5-0.6-0.9-1.2-1.4-1.8c-0.5-0.6-0.9-1.1-1.3-1.7c-0.4-0.5-0.8-1-1.1-1.4c-0.2-0.3-0.4-0.5-0.5-0.7c-0.1-0.2-0.2-0.3-0.2-0.4 c-0.1,0-0.2,0-0.4,0c-0.2,0-0.4,0-0.7,0c-0.3,0-0.6,0-1,0c-0.3,0-0.7,0-1,0c-0.3,0-0.6,0-0.8,0c0,0,0,0.1,0,0.1c0,0.1,0,0.1,0,0.2 C55.7,135.9,55.7,135.9,55.8,136z M39.8,135.9c0.2,0,0.3,0.1,0.5,0.1c0.2,0,0.3,0.1,0.5,0.1c0.2,0.1,0.3,0.1,0.4,0.2 c0.1,0.1,0.1,0.2,0.2,0.3c0,0.1,0.1,0.3,0.1,0.5c0,0.2,0,0.4,0,0.7c0,0.3,0,0.6,0,1c0,0.4,0,0.8,0,1.3s0,0.9,0,1.4 c0,0.6,0,1.2,0,1.7c0,0.6,0,1.1,0,1.6c0,0.5,0,1,0,1.3c0,0.4,0,0.7,0,1c0,0.3,0,0.5-0.1,0.6c0,0.2-0.1,0.3-0.2,0.4 c-0.1,0.1-0.2,0.2-0.4,0.2c-0.2,0-0.4,0.1-0.6,0.1c-0.2,0-0.5,0.1-0.8,0.1c0,0,0,0.1,0,0.1c0,0.1,0,0.1,0,0.2c0,0.1,0,0.1,0,0.1 c0.5,0,1.1,0,1.6,0c0.5,0,1.1,0,1.7,0c0.7,0,1.4,0,2,0c0.6,0,1.2,0,1.8,0c0.6,0,1.2,0,1.7,0c0.3,0,0.6,0,0.7,0c0.2,0,0.3,0,0.4-0.1 c0.1,0,0.1-0.1,0.2-0.2c0.1-0.2,0.2-0.4,0.2-0.7c0.1-0.3,0.2-0.6,0.3-0.9c0.1-0.3,0.2-0.6,0.2-0.9c0.1-0.3,0.1-0.5,0.1-0.6 c0,0,0,0-0.1-0.1c0,0-0.1,0-0.1-0.1c0,0-0.1,0-0.1,0c-0.1,0.3-0.2,0.6-0.4,0.8c-0.1,0.3-0.3,0.5-0.4,0.8c-0.1,0.2-0.3,0.4-0.4,0.6 c-0.1,0.1-0.2,0.2-0.3,0.2c-0.1,0.1-0.2,0.1-0.3,0.2c-0.1,0-0.3,0.1-0.5,0.1c-0.2,0-0.5,0-0.8,0c-0.6,0-1.1,0-1.5,0 c-0.4,0-0.7-0.1-1-0.1c-0.1,0-0.2-0.1-0.3-0.2c-0.1-0.1-0.1-0.3-0.1-0.5c0-0.3,0-0.7,0-1.1c0-0.4,0-0.9,0-1.3c0-0.4,0-0.9,0-1.2 c0-0.4,0-0.7,0-1c0,0,0-0.1,0-0.1c0,0,0-0.1,0.1-0.1c0.1,0,0.3,0,0.5,0c0.2,0,0.5,0,0.7,0c0.3,0,0.5,0,0.8,0c0.3,0,0.5,0,0.7,0 c0.2,0,0.4,0,0.4,0c0.2,0,0.3,0.1,0.5,0.1c0.1,0.1,0.2,0.2,0.3,0.3c0.1,0.1,0.1,0.2,0.1,0.3c0,0.1,0,0.1,0.1,0.2c0,0.1,0,0.1,0,0.2 c0,0.1,0,0.2,0.1,0.4c0,0,0.1,0,0.1,0c0.1,0,0.1,0,0.2,0c0.1,0,0.1,0,0.1,0c0-0.3,0-0.6,0-1c0-0.3,0-0.7,0-1c0-0.4,0-0.8,0-1.1 c0-0.3,0.1-0.6,0.1-0.9c0,0,0,0-0.1,0c-0.1,0-0.1,0-0.2,0c-0.1,0-0.1,0-0.1,0c0,0.1-0.1,0.2-0.1,0.4c0,0.1-0.1,0.2-0.1,0.3 c-0.1,0.3-0.2,0.5-0.3,0.6c-0.1,0.1-0.3,0.2-0.6,0.3c-0.2,0-0.4,0-0.7,0c-0.3,0-0.6,0-0.9,0c-0.3,0-0.6,0-0.9,0c-0.3,0-0.5,0-0.7,0 c0,0,0,0-0.1-0.1c0,0,0-0.1,0-0.1c0-0.3,0-0.6,0-1.1c0-0.4,0-0.9,0-1.3c0-0.5,0-0.9,0-1.4c0-0.4,0-0.8,0-1.1c0-0.1,0-0.1,0.1-0.2 c0-0.1,0.1-0.1,0.2-0.1c0.1,0,0.2,0,0.4,0c0.2,0,0.4,0,0.7,0c0.3,0,0.5,0,0.8,0c0.3,0,0.5,0,0.7,0c0.2,0,0.4,0,0.5,0 c0.3,0,0.4,0.1,0.6,0.2c0.1,0.1,0.3,0.3,0.3,0.5c0.1,0.2,0.2,0.4,0.2,0.7c0.1,0.3,0.1,0.6,0.2,1c0,0,0.1,0,0.2,0c0.1,0,0.1,0,0.2,0 c0-0.3,0.1-0.7,0.1-1.1c0-0.4,0.1-0.8,0.1-1.1c0-0.3,0.1-0.6,0.1-0.9c0,0,0,0,0,0c0,0,0,0,0,0c-0.2,0-0.4,0.1-0.7,0.1 c-0.3,0-0.6,0-0.9,0c-0.3,0-0.6,0-0.9,0h-4.1c-0.4,0-0.7,0-1.1,0c-0.4,0-0.7,0-1,0c-0.3,0-0.5,0-0.7,0c0,0,0,0.1,0,0.1 c0,0,0,0.1,0,0.1C39.7,135.9,39.7,135.9,39.8,135.9z M29.5,148.5c-0.3,0-0.5-0.1-0.6-0.1c-0.1,0-0.2,0-0.3-0.1 c-0.1,0-0.2,0-0.4-0.1c-0.2-0.1-0.3-0.1-0.5-0.2c-0.1-0.1-0.2-0.3-0.3-0.5c-0.1-0.2-0.1-0.5-0.1-0.9c0-0.3,0-0.6,0-1.1 c0-0.5,0-1,0-1.7c0-0.6,0-1.3,0-2c0-0.7,0-1.5,0-2.2c0-0.8,0-1.5,0-2.3c0-0.8,0-1.5,0-2.1c0-0.7,0-1.3,0-1.8c0,0,0-0.1,0-0.1 c0,0,0.1-0.1,0.1-0.1c0.1,0,0.2,0,0.4,0c0.2,0,0.4,0,0.7,0c0.3,0,0.6,0,0.9,0c0.3,0,0.6,0,0.8,0c0.3,0,0.5,0,0.6,0 c0.3,0,0.5,0.1,0.7,0.2c0.2,0.1,0.3,0.3,0.5,0.6c0.1,0.2,0.1,0.4,0.2,0.7c0.1,0.3,0.1,0.5,0.2,0.8c0.1,0.3,0.1,0.6,0.1,0.8 c0,0,0.1,0,0.1,0c0.1,0,0.2,0,0.2,0c0.1,0,0.1,0,0.1,0c0-0.4,0.1-0.8,0.1-1.2c0-0.4,0.1-0.8,0.1-1.2c0.1-0.4,0.1-0.7,0.2-1.1 c0.1-0.3,0.1-0.6,0.2-0.8c0,0,0-0.1,0-0.1c0,0,0,0-0.1,0c-0.3,0.1-0.5,0.2-0.8,0.2c-0.3,0.1-0.5,0.1-0.8,0.1c-0.3,0-0.6,0-1,0h-9.9 c-0.3,0-0.7,0-1.1-0.1c-0.4-0.1-0.8-0.1-1.2-0.3c0,0-0.1,0-0.1,0c0,0-0.1,0-0.1,0.1c0,0.2,0,0.5-0.1,0.9c0,0.4-0.1,0.7-0.1,1.2 c0,0.4-0.1,0.8-0.1,1.2c-0.1,0.4-0.1,0.7-0.2,1c0,0,0.1,0.1,0.1,0.1c0.1,0,0.1,0,0.2,0c0.1,0,0.1,0,0.1,0c0.1-0.3,0.2-0.5,0.3-0.8 c0.1-0.3,0.2-0.6,0.4-0.8c0.1-0.3,0.2-0.5,0.4-0.7c0.1-0.2,0.3-0.4,0.5-0.6c0.2-0.1,0.5-0.2,0.8-0.3c0.1,0,0.3,0,0.5,0 c0.2,0,0.5,0,0.7,0c0.3,0,0.5,0,0.8,0c0.3,0,0.5,0,0.7,0c0.2,0,0.4,0,0.5,0c0,0,0.1,0,0.1,0.1c0,0,0,0.1,0,0.1c0,0.7,0,1.5,0,2.3 c0,0.8,0,1.7,0,2.5c0,0.9,0,1.7,0,2.5c0,0.8,0,1.6,0,2.4c0,0.7,0,1.4,0,2c0,0.6,0,1.1,0,1.4c0,0.4-0.1,0.8-0.1,1.1 c-0.1,0.3-0.2,0.4-0.3,0.6c-0.1,0.1-0.3,0.2-0.5,0.2c-0.2,0.1-0.5,0.1-0.8,0.2c-0.3,0-0.6,0.1-0.9,0.1c0,0,0,0.1,0,0.1 c0,0.1,0,0.1,0,0.2c0,0.1,0,0.1,0,0.2c0.3,0,0.6,0,1,0c0.4,0,0.8,0,1.4,0c0.5,0,1.2,0,2,0c0.7,0,1.4,0,2,0c0.6,0,1.2,0,1.6,0 c0,0,0.1-0.1,0.1-0.1c0-0.1,0-0.1,0-0.2C29.6,148.6,29.5,148.6,29.5,148.5z"></path> <path id="XMLID_3_" class="st0" d="M171.1,148.5c-0.1,0-0.2,0-0.4-0.1c-0.2,0-0.4-0.1-0.6-0.2c-0.2-0.1-0.4-0.2-0.5-0.3 c-0.1-0.1-0.1-0.2-0.2-0.3c-0.1-0.1-0.1-0.2-0.1-0.3c0-0.3,0-0.6,0-1.1c0-0.4,0-0.9,0-1.4c0-0.5,0-1,0-1.5c0-0.5,0-0.9,0-1.3 c0,0,0-0.1,0-0.1c0,0,0.1,0,0.1,0c0.1,0,0.1,0,0.2,0c0.1,0,0.3,0,0.5,0c0.7,0,1.3,0.1,1.8,0.4c0.5,0.3,0.9,0.6,1.2,1.1 c0.3,0.5,0.4,1.1,0.4,1.8c0,1-0.2,1.9-0.6,2.4C172.5,148.3,171.9,148.5,171.1,148.5 M169.9,136.2c0.7,0,1.2,0.1,1.7,0.4 c0.4,0.2,0.8,0.6,1,1c0.2,0.4,0.3,1,0.3,1.6c0,0.5-0.1,0.9-0.2,1.2c-0.2,0.3-0.4,0.6-0.7,0.8c-0.1,0.1-0.3,0.1-0.5,0.2 c-0.2,0.1-0.6,0.1-0.9,0.1c-0.3,0-0.5,0-0.7,0c-0.2,0-0.3,0-0.4,0c0,0,0,0-0.1,0c0,0,0,0,0-0.1c0-0.4,0-0.8,0-1.3 c0-0.5,0-0.9,0-1.3c0-0.4,0-0.8,0-1.2c0-0.4,0-0.7,0-0.9c0-0.1,0-0.1,0-0.2c0-0.1,0.1-0.1,0.1-0.1c0,0,0.1,0,0.2-0.1 C169.7,136.2,169.8,136.2,169.9,136.2z M165.2,135.9c0.2,0,0.4,0,0.6,0.1c0.2,0,0.4,0.1,0.5,0.1c0.1,0,0.2,0.1,0.3,0.1 c0.1,0.1,0.1,0.2,0.2,0.3c0,0.1,0.1,0.3,0.1,0.5c0,0.5,0.1,1.2,0.1,2c0,0.8,0,1.9,0,3.2c0,0.8,0,1.6,0,2.1c0,0.6,0,1.1,0,1.5 c0,0.4,0,0.7,0,0.9c0,0.2,0,0.4,0,0.6c0,0.3-0.1,0.6-0.2,0.7c-0.1,0.2-0.2,0.3-0.4,0.3c-0.2,0.1-0.4,0.1-0.5,0.1 c-0.2,0-0.4,0.1-0.7,0.1c0,0,0,0,0,0.1c0,0.1,0,0.1,0,0.2c0,0.1,0,0.1,0,0.1c0.3,0,0.6,0,1,0c0.4,0,0.8,0,1.2,0c0.4,0,0.8,0,1.2,0 c0.4,0,0.8,0,1.1,0c0.3,0,0.6,0,0.8,0c0.6,0,1.2,0,1.8-0.1c0.6-0.1,1.1-0.2,1.6-0.5c0.8-0.4,1.4-0.8,1.8-1.4 c0.4-0.6,0.6-1.3,0.6-2.2c0-0.6-0.1-1.2-0.4-1.6c-0.3-0.5-0.7-0.8-1.2-1.1c-0.5-0.3-1.1-0.5-1.8-0.6c0,0,0,0,0,0c0,0,0,0,0,0 c0.6-0.2,1.1-0.4,1.4-0.7c0.4-0.3,0.6-0.6,0.8-1c0.2-0.4,0.3-0.7,0.3-1.1c0-0.5-0.1-1-0.3-1.3c-0.2-0.4-0.4-0.6-0.7-0.9 c-0.3-0.2-0.6-0.4-0.9-0.5c-0.3-0.1-0.7-0.2-1-0.3c-0.3,0-0.7-0.1-0.9-0.1c-0.5,0-1,0-1.6,0c-0.6,0-1.2,0-2,0c-0.6,0-1.1,0-1.5,0 c-0.4,0-0.8,0-1.2,0c0,0,0,0.1,0,0.1c0,0.1,0,0.1,0,0.2C165.1,135.9,165.1,135.9,165.2,135.9z M145.4,135.9l0.9,0.2 c0.2,0.1,0.4,0.2,0.5,0.4c0.1,0.2,0.2,0.4,0.2,0.8c0,0.8,0,1.6,0,2.4c0,0.8,0,1.6,0,2.3c0,0.7,0,1.4,0,2c0,0.6,0.1,1.1,0.1,1.5 c0.1,0.8,0.3,1.4,0.7,2c0.4,0.6,1,1,1.7,1.4c0.7,0.3,1.7,0.5,2.9,0.5c1,0,1.9-0.2,2.7-0.5c0.8-0.3,1.4-0.9,1.8-1.7 c0.5-0.8,0.7-1.8,0.8-3.1c0-0.4,0.1-0.8,0.1-1.3c0-0.5,0-1,0.1-1.6c0-0.6,0-1.2,0-1.7c0-0.6,0-1.2,0.1-1.8c0-0.4,0-0.7,0.1-0.9 c0-0.2,0.1-0.4,0.2-0.5c0.1-0.1,0.3-0.2,0.4-0.2c0.1,0,0.2-0.1,0.3-0.1c0.1,0,0.3-0.1,0.4-0.1c0,0,0-0.1,0-0.1c0-0.1,0-0.1,0-0.2 c0-0.1,0-0.1,0-0.1c-0.2,0-0.3,0-0.5,0c-0.2,0-0.4,0-0.7,0c-0.3,0-0.6,0-0.9,0c-0.5,0-1,0-1.4,0c-0.4,0-0.7,0-0.9,0 c0,0,0,0.1,0,0.1c0,0.1,0,0.1,0,0.2c0,0.1,0,0.1,0,0.1c0.2,0,0.3,0,0.5,0.1c0.1,0,0.3,0.1,0.4,0.1c0.2,0,0.4,0.1,0.5,0.2 c0.1,0.1,0.3,0.2,0.3,0.5c0.1,0.2,0.1,0.5,0.1,0.9c0,0.4,0,0.8,0,1.3c0,0.5,0,1,0,1.5c0,0.5,0,1,0,1.6c0,0.5,0,1,0,1.4 c0,0.4,0,0.8-0.1,1.2c-0.1,0.7-0.2,1.3-0.4,1.8c-0.2,0.5-0.5,0.9-0.8,1.1c-0.3,0.3-0.7,0.5-1.1,0.6c-0.4,0.1-0.8,0.2-1.2,0.2 c-0.9,0-1.7-0.2-2.3-0.6c-0.6-0.4-1-0.9-1.2-1.6c-0.1-0.2-0.2-0.5-0.2-0.7c-0.1-0.3-0.1-0.5-0.1-0.8c0-0.3-0.1-0.7-0.1-1.1 c0-0.2,0-0.5,0-0.9c0-0.4,0-0.8,0-1.3c0-0.5,0-1,0-1.4c0-0.5,0-1,0-1.4c0-0.4,0-0.8,0-1.1c0-0.4,0.1-0.6,0.2-0.8 c0.1-0.2,0.3-0.3,0.5-0.3c0.1,0,0.3,0,0.4-0.1c0.1,0,0.3,0,0.5-0.1c0,0,0-0.1,0-0.1c0-0.1,0-0.1,0-0.2c0-0.1,0-0.1,0-0.1 c-0.2,0-0.6,0-1.1,0c-0.5,0-1.1,0-1.8,0c-0.7,0-1.3,0-1.8,0c-0.5,0-0.8,0-1,0c0,0,0,0.1,0,0.1c0,0.1,0,0.1,0,0.2 C145.4,135.9,145.4,135.9,145.4,135.9z M129.4,136c0.2,0,0.4,0,0.5,0.1c0.2,0,0.3,0.1,0.5,0.1c0.2,0.1,0.3,0.1,0.4,0.2 c0.1,0.1,0.2,0.2,0.2,0.4c0,0.1,0,0.3,0,0.5c0,0.2,0,0.5,0,0.9c0,0.4,0,0.8,0,1.4c0,0.6,0,1.2,0,2c0,1,0,1.8,0,2.5 c0,0.7,0,1.3,0,1.7c0,0.5,0,0.8,0,1.1c0,0.3,0,0.5,0,0.6c0,0.3-0.1,0.5-0.2,0.7c-0.1,0.1-0.2,0.2-0.4,0.3c-0.1,0-0.2,0.1-0.3,0.1 c-0.1,0-0.2,0-0.3,0c-0.1,0-0.3,0-0.5,0.1c0,0,0,0.1,0,0.1c0,0.1,0,0.1,0,0.2c0,0.1,0,0.1,0,0.1c0.4,0,0.9,0,1.4,0c0.5,0,1,0,1.5,0 c0.4,0,0.8,0,1.2,0c0.5,0,0.9,0,1.4,0c0.5,0,1,0,1.5,0c0.5,0,0.9,0,1.3,0c0.3,0,0.6,0,0.8,0c0.2,0,0.3-0.1,0.4-0.1 c0.1,0,0.1-0.1,0.2-0.1c0.1-0.1,0.2-0.3,0.3-0.5c0.1-0.2,0.2-0.5,0.3-0.8c0.1-0.3,0.2-0.6,0.3-0.9c0.1-0.3,0.2-0.5,0.2-0.8 c0.1-0.2,0.1-0.4,0.1-0.6c0,0,0-0.1-0.1-0.1c-0.1,0-0.1,0-0.2,0c-0.1,0-0.1,0-0.1,0c-0.1,0.3-0.3,0.7-0.5,1 c-0.2,0.3-0.4,0.6-0.6,0.9c-0.2,0.3-0.4,0.5-0.5,0.6c-0.2,0.2-0.4,0.4-0.6,0.5c-0.2,0.1-0.4,0.1-0.6,0.1c-0.2,0-0.5,0-0.8,0 s-0.6,0-0.9,0c-0.3,0-0.6,0-0.8-0.1c-0.2,0-0.4,0-0.6-0.1c-0.1,0-0.2-0.1-0.3-0.2c-0.1-0.1-0.1-0.3-0.1-0.5c0-0.1,0-0.4,0-0.7 c0-0.3,0-0.6,0-1c0-0.4,0-0.8,0-1.3c0-0.5,0-0.9,0-1.4c0-0.5,0-0.9,0-1.3c0-0.5,0-1,0-1.5c0-0.5,0-1,0-1.4c0-0.4,0-0.8,0-1.1 c0-0.3,0-0.5,0-0.6c0-0.2,0-0.4,0-0.5c0-0.1,0.1-0.2,0.2-0.3c0.1-0.1,0.2-0.2,0.4-0.2c0.1,0,0.2-0.1,0.2-0.1c0.1,0,0.2,0,0.3-0.1 c0.1,0,0.2,0,0.4-0.1c0,0,0-0.1,0-0.1c0-0.1,0-0.1,0-0.2c0-0.1,0-0.1,0-0.1c-0.3,0-0.6,0-1.1,0c-0.5,0-1,0-1.7,0c-0.4,0-0.8,0-1,0 c-0.3,0-0.5,0-0.7,0c-0.2,0-0.4,0-0.5,0c-0.2,0-0.3,0-0.5,0c0,0,0,0,0,0.1c0,0.1,0,0.1,0,0.2C129.4,135.9,129.4,135.9,129.4,136z M118.4,136c0.3,0,0.5,0.1,0.7,0.1c0.2,0,0.3,0.1,0.5,0.1c0.2,0,0.3,0.1,0.3,0.2c0.1,0.1,0.1,0.1,0.1,0.2c0,0.2-0.1,0.4-0.2,0.7 c-0.2,0.3-0.4,0.6-0.6,0.9c-0.5,0.6-1,1.3-1.5,1.8c-0.5,0.6-1,1-1.4,1.4c-0.4,0.4-0.8,0.7-1.2,0.9c0,0,0,0,0,0.1c0,0,0,0.1,0,0.1 c0,0,0,0.1,0,0.1c0.1,0,0.1,0.1,0.2,0.1c0.1,0.1,0.1,0.1,0.1,0.2c0.3,0.4,0.6,0.8,0.9,1.3c0.3,0.5,0.7,0.9,1.1,1.4 c0.4,0.5,0.7,0.9,1.1,1.3c0.3,0.4,0.7,0.8,0.9,1.1c0.2,0.2,0.4,0.3,0.6,0.5c0.2,0.2,0.4,0.3,0.7,0.4c0.1,0,0.3,0.1,0.5,0.1 c0.2,0,0.5,0.1,0.8,0.1c0.3,0,0.6,0,0.9,0c0.3,0,0.6,0,0.9,0c0.3,0,0.5,0,0.8-0.1c0,0,0-0.1,0.1-0.1c0-0.1,0-0.1,0-0.2 c0-0.1,0-0.1,0-0.1c-0.2,0-0.4,0-0.6,0c-0.2,0-0.4-0.1-0.5-0.1c-0.2-0.1-0.3-0.1-0.4-0.2c-0.1-0.1-0.3-0.2-0.5-0.4 c-0.3-0.3-0.6-0.6-1-1c-0.4-0.4-0.8-0.9-1.2-1.4c-0.4-0.5-0.9-1-1.3-1.5c-0.4-0.5-0.8-1-1.1-1.4c-0.3-0.4-0.6-0.8-0.7-1.1v-0.1 c0.3-0.3,0.6-0.7,1-1.1c0.4-0.4,0.8-0.9,1.2-1.4c0.4-0.5,0.8-0.9,1.2-1.4c0.3-0.3,0.5-0.5,0.7-0.7c0.2-0.2,0.4-0.3,0.6-0.4 c0.2-0.1,0.4-0.2,0.6-0.2c0.2,0,0.5-0.1,0.7-0.1c0,0,0-0.1,0-0.1c0-0.1,0-0.1,0-0.2c0-0.1,0-0.1,0-0.1l-2.6,0.1c-0.3,0-0.5,0-0.7,0 c-0.2,0-0.4,0-0.7,0c-0.2,0-0.5,0-0.9,0c0,0,0,0.1,0,0.1c0,0.1,0,0.1,0,0.2C118.3,135.9,118.3,135.9,118.4,136z M114.8,142.1 c0-0.2,0-0.5,0-0.8c0-0.3,0-0.7,0-1c0-0.4,0-0.7,0-1.1c0-0.4,0-0.7,0-1c0-0.3,0-0.6,0-0.8c0-0.3,0-0.5,0.1-0.6 c0-0.2,0.1-0.3,0.2-0.4c0.1-0.1,0.2-0.2,0.4-0.2c0.1,0,0.2-0.1,0.4-0.1c0.2,0,0.3,0,0.5-0.1c0,0,0-0.1,0-0.1c0-0.1,0-0.1,0-0.2 c0-0.1,0-0.1,0-0.1c-0.2,0-0.4,0-0.7,0c-0.3,0-0.6,0-0.9,0c-0.3,0-0.7,0-1,0c-0.7,0-1.3,0-1.7,0c-0.5,0-0.8,0-1.1,0 c0,0,0,0.1,0,0.1c0,0.1,0,0.1,0,0.2c0,0.1,0,0.1,0,0.1c0.2,0,0.3,0,0.5,0.1c0.2,0,0.3,0.1,0.5,0.1c0.2,0.1,0.4,0.2,0.5,0.4 c0.1,0.2,0.1,0.5,0.1,0.8c0,0.2,0,0.5,0,0.9c0,0.3,0,0.7,0,1.1c0,0.4,0,0.8,0,1.3c0,0.4,0,0.9,0,1.3c0,0.5,0,1,0,1.4 c0,0.5,0,1,0,1.5c0,0.5,0,0.9,0,1.3c0,0.4,0,0.7,0,1c0,0.4-0.1,0.7-0.2,1c-0.1,0.2-0.3,0.4-0.5,0.4c-0.1,0-0.2,0-0.3,0.1 c-0.1,0-0.2,0-0.3,0c-0.1,0-0.2,0-0.4,0.1c0,0,0,0.1,0,0.1c0,0.1,0,0.1,0,0.2c0,0.1,0,0.1,0,0.1c0.1,0,0.2,0,0.4,0 c0.2,0,0.5,0,0.7,0c0.3,0,0.6,0,0.9,0c0.3,0,0.6,0,0.8,0c0.4,0,0.7,0,1.1,0c0.4,0,0.7,0,1,0c0.3,0,0.6,0,0.8,0c0,0,0-0.1,0.1-0.1 c0-0.1,0-0.1,0-0.2c0-0.1,0-0.1,0-0.1c-0.2,0-0.3,0-0.5-0.1c-0.2,0-0.3-0.1-0.5-0.1c-0.2,0-0.3-0.1-0.4-0.2s-0.2-0.2-0.2-0.4 c0-0.2-0.1-0.4-0.1-0.7c0-0.5,0-1,0-1.6c0-0.6,0-1.2,0-1.8C114.8,143.3,114.8,142.7,114.8,142.1z"></path> </g> </svg> 